<svg xmlns="http://www.w3.org/2000/svg" xmlns:xlink="http://www.w3.org/1999/xlink" width="500" zoomAndPan="magnify" viewBox="0 0 375 374.999991" height="500" preserveAspectRatio="xMidYMid meet" version="1.2"><defs><clipPath id="c88a259d60"><path d="M 92 146.035156 L 284.867188 146.035156 L 284.867188 174 L 92 174 Z M 92 146.035156 "/></clipPath></defs><g id="d58d8fab5b"><g clip-rule="nonzero" clip-path="url(#c88a259d60)"><path style=" stroke:none;fill-rule:nonzero;fill:#ffde59;fill-opacity:1;" d="M 107.816406 165.726562 C 110.21875 165.273438 112.601562 164.679688 114.941406 163.949219 C 117.285156 163.214844 119.597656 162.371094 121.882812 161.445312 C 124.171875 160.511719 126.445312 159.515625 128.722656 158.480469 L 135.605469 155.332031 C 137.933594 154.277344 140.296875 153.238281 142.734375 152.253906 C 143.347656 152.007812 143.953125 151.761719 144.578125 151.527344 L 145.507812 151.175781 L 146.449219 150.832031 C 147.070312 150.597656 147.714844 150.386719 148.347656 150.164062 C 148.667969 150.058594 148.992188 149.953125 149.3125 149.847656 C 149.636719 149.746094 149.953125 149.636719 150.28125 149.539062 C 150.9375 149.34375 151.585938 149.140625 152.253906 148.960938 C 152.585938 148.867188 152.914062 148.773438 153.246094 148.6875 L 154.253906 148.433594 C 154.921875 148.265625 155.589844 148.09375 156.273438 147.953125 L 157.289062 147.734375 C 157.628906 147.664062 157.96875 147.585938 158.3125 147.53125 L 160.367188 147.160156 L 162.4375 146.851562 C 162.609375 146.828125 162.78125 146.796875 162.957031 146.777344 L 163.476562 146.71875 L 164.515625 146.59375 C 164.863281 146.558594 165.210938 146.507812 165.558594 146.480469 L 166.601562 146.386719 C 169.386719 146.144531 172.183594 146.03125 174.964844 146.058594 C 177.75 146.085938 180.519531 146.222656 183.261719 146.472656 C 188.753906 146.964844 194.125 147.894531 199.34375 149.09375 C 204.558594 150.3125 209.628906 151.8125 214.539062 153.53125 C 216.992188 154.394531 219.417969 155.296875 221.792969 156.265625 C 224.167969 157.226562 226.511719 158.234375 228.808594 159.289062 C 223.886719 157.644531 218.925781 156.085938 213.871094 154.75 C 208.832031 153.398438 203.707031 152.257812 198.53125 151.367188 C 195.941406 150.921875 193.335938 150.5625 190.726562 150.269531 C 189.421875 150.117188 188.113281 150.003906 186.808594 149.890625 L 184.84375 149.757812 C 184.191406 149.714844 183.535156 149.691406 182.878906 149.660156 C 180.261719 149.550781 177.648438 149.527344 175.050781 149.613281 L 173.105469 149.703125 C 172.457031 149.746094 171.8125 149.796875 171.167969 149.84375 L 170.683594 149.878906 L 170.203125 149.921875 L 169.242188 150.015625 C 168.921875 150.050781 168.601562 150.074219 168.28125 150.113281 L 167.328125 150.234375 L 166.371094 150.351562 C 166.054688 150.390625 165.742188 150.449219 165.421875 150.496094 L 164.480469 150.640625 L 164.007812 150.714844 C 163.847656 150.738281 163.695312 150.773438 163.539062 150.800781 L 161.667969 151.148438 L 159.820312 151.554688 C 159.511719 151.617188 159.210938 151.699219 158.90625 151.777344 L 157.996094 152.003906 C 157.386719 152.148438 156.792969 152.328125 156.195312 152.496094 L 155.300781 152.75 C 155 152.839844 154.710938 152.9375 154.414062 153.027344 C 153.824219 153.210938 153.242188 153.414062 152.65625 153.609375 C 147.988281 155.226562 143.527344 157.289062 139.054688 159.457031 C 134.578125 161.625 130.070312 163.910156 125.238281 165.96875 C 124.3125 166.363281 123.375 166.746094 122.425781 167.121094 C 125.289062 167.339844 128.160156 167.503906 131.042969 167.628906 L 133.773438 167.726562 L 136.511719 167.792969 C 137.425781 167.820312 138.339844 167.820312 139.253906 167.832031 L 140.625 167.847656 C 141.082031 167.851562 141.539062 167.847656 141.996094 167.847656 C 145.65625 167.863281 149.324219 167.789062 152.992188 167.679688 C 156.664062 167.570312 160.335938 167.402344 164.011719 167.199219 C 167.6875 166.992188 171.367188 166.757812 175.050781 166.488281 C 182.414062 165.960938 189.785156 165.320312 197.179688 164.699219 C 204.574219 164.074219 211.988281 163.453125 219.433594 162.949219 L 222.226562 162.765625 C 223.15625 162.703125 224.089844 162.644531 225.023438 162.589844 C 226.890625 162.480469 228.761719 162.382812 230.636719 162.296875 C 231.574219 162.253906 232.515625 162.222656 233.453125 162.183594 L 236.273438 162.09375 C 237.214844 162.078125 238.15625 162.058594 239.097656 162.046875 L 240.511719 162.039062 C 240.984375 162.03125 241.453125 162.03125 241.925781 162.035156 C 242.871094 162.042969 243.8125 162.039062 244.757812 162.0625 L 246.175781 162.089844 C 246.648438 162.101562 247.121094 162.121094 247.589844 162.136719 L 249.007812 162.191406 L 250.421875 162.265625 C 251.363281 162.308594 252.308594 162.382812 253.246094 162.445312 C 257.011719 162.71875 260.757812 163.175781 264.4375 163.820312 C 268.121094 164.476562 271.726562 165.34375 275.191406 166.449219 C 278.652344 167.550781 281.976562 168.878906 285.046875 170.46875 C 278.414062 167.914062 271.257812 166.316406 264.003906 165.523438 C 256.738281 164.714844 249.371094 164.699219 242.046875 165.03125 C 241.585938 165.050781 241.128906 165.074219 240.671875 165.101562 L 239.296875 165.179688 C 238.378906 165.234375 237.464844 165.304688 236.546875 165.359375 L 233.796875 165.566406 C 232.882812 165.640625 231.964844 165.714844 231.050781 165.796875 C 229.21875 165.960938 227.386719 166.132812 225.550781 166.320312 C 223.714844 166.496094 221.878906 166.691406 220.042969 166.882812 C 212.699219 167.664062 205.355469 168.507812 197.988281 169.328125 C 183.253906 170.964844 168.398438 172.5 153.328125 173.085938 C 145.796875 173.378906 138.21875 173.417969 130.636719 173.109375 C 126.847656 172.941406 123.058594 172.707031 119.277344 172.351562 C 115.5 171.992188 111.734375 171.535156 107.996094 170.972656 L 92.375 168.628906 Z M 107.816406 165.726562 "/></g><path style=" stroke:none;fill-rule:nonzero;fill:#ff1616;fill-opacity:1;" d="M 149.257812 181.707031 C 143.4375 182.980469 137.535156 183.917969 131.601562 184.460938 C 124.160156 185.144531 116.578125 185.242188 109.183594 184.046875 C 105.589844 183.464844 102.023438 182.566406 98.65625 181.171875 C 95.890625 180.027344 90.65625 178.167969 90.160156 174.730469 C 89.984375 173.511719 89.933594 171.667969 91.46875 170.71875 C 93.441406 169.492188 96.089844 170.726562 97.9375 171.429688 C 100.144531 172.269531 102.320312 173.160156 104.703125 173.8125 C 107.679688 174.628906 110.757812 175.304688 113.867188 175.910156 C 117.371094 176.585938 120.941406 177.195312 124.546875 177.652344 C 122.765625 177.949219 119.8125 178.347656 118.214844 178.546875 C 116.300781 178.785156 114.378906 178.992188 112.445312 179.160156 C 110.414062 179.335938 108.316406 179.46875 106.214844 179.535156 C 115.566406 181.414062 131.492188 183.058594 154.652344 180.398438 C 152.832031 180.867188 151.015625 181.324219 149.257812 181.707031 Z M 149.257812 181.707031 "/><g style="fill:#ffffff;fill-opacity:1;"><g transform="translate(91.236807, 213.679616)"><path style="stroke:none" d="M 18.265625 -14.015625 L 18.265625 -13.875 C 18.265625 -13.894531 18.265625 -13.90625 18.265625 -13.90625 C 18.265625 -13.914062 18.265625 -13.929688 18.265625 -13.953125 C 18.265625 -13.960938 18.265625 -13.972656 18.265625 -13.984375 C 18.265625 -13.992188 18.265625 -14.003906 18.265625 -14.015625 Z M 18.71875 -1.03125 C 18.8125 -0.90625 18.84375 -0.710938 18.8125 -0.453125 C 18.769531 -0.128906 18.585938 0.03125 18.265625 0.03125 L 15.625 0.03125 C 15.414062 0.03125 15.25 -0.0195312 15.125 -0.125 C 15.070312 -0.15625 15.023438 -0.203125 14.984375 -0.265625 C 14.953125 -0.328125 14.910156 -0.390625 14.859375 -0.453125 L 10.515625 -8.15625 L 5.46875 -8.15625 L 5.46875 -0.8125 C 5.46875 -0.445312 5.382812 -0.210938 5.21875 -0.109375 C 5.050781 -0.015625 4.910156 0.03125 4.796875 0.03125 L 2.609375 0.03125 C 2.492188 0.03125 2.347656 -0.015625 2.171875 -0.109375 C 2.003906 -0.210938 1.921875 -0.445312 1.921875 -0.8125 L 1.921875 -10.875 C 1.921875 -11.25 2.003906 -11.476562 2.171875 -11.5625 C 2.347656 -11.65625 2.492188 -11.703125 2.609375 -11.703125 L 13.03125 -11.703125 C 13.644531 -11.703125 14.070312 -11.875 14.3125 -12.21875 C 14.5625 -12.570312 14.6875 -13.148438 14.6875 -13.953125 C 14.6875 -14.742188 14.5625 -15.316406 14.3125 -15.671875 C 14.070312 -16.023438 13.644531 -16.203125 13.03125 -16.203125 L 2.609375 -16.203125 C 2.492188 -16.203125 2.347656 -16.242188 2.171875 -16.328125 C 2.003906 -16.421875 1.921875 -16.648438 1.921875 -17.015625 L 1.921875 -18.90625 C 1.921875 -19.289062 2.003906 -19.523438 2.171875 -19.609375 C 2.347656 -19.703125 2.492188 -19.75 2.609375 -19.75 L 13.65625 -19.75 C 15.300781 -19.75 16.484375 -19.238281 17.203125 -18.21875 C 17.890625 -17.226562 18.242188 -15.804688 18.265625 -13.953125 C 18.242188 -12.097656 17.890625 -10.675781 17.203125 -9.6875 C 16.597656 -8.851562 15.707031 -8.363281 14.53125 -8.21875 Z M 18.71875 -1.03125 "/></g></g><g style="fill:#ffffff;fill-opacity:1;"><g transform="translate(111.979577, 213.679616)"><path style="stroke:none" d="M 14.765625 -17.515625 L 21.5 -0.90625 C 21.59375 -0.6875 21.617188 -0.492188 21.578125 -0.328125 C 21.554688 -0.265625 21.507812 -0.1875 21.4375 -0.09375 C 21.363281 -0.0078125 21.234375 0.03125 21.046875 0.03125 L 18.484375 0.03125 C 18.140625 0.03125 17.90625 -0.144531 17.78125 -0.5 L 11.84375 -15.34375 C 11.820312 -15.375 11.8125 -15.390625 11.8125 -15.390625 L 11.71875 -15.390625 C 11.71875 -15.390625 11.710938 -15.382812 11.703125 -15.375 C 11.703125 -15.363281 11.691406 -15.34375 11.671875 -15.3125 L 8.609375 -7.546875 L 11.578125 -7.546875 C 11.910156 -7.546875 12.140625 -7.390625 12.265625 -7.078125 L 13.140625 -4.9375 C 13.210938 -4.664062 13.175781 -4.4375 13.03125 -4.25 C 12.90625 -4.019531 12.703125 -3.90625 12.421875 -3.90625 L 7.171875 -3.90625 L 5.796875 -0.484375 C 5.671875 -0.140625 5.445312 0.03125 5.125 0.03125 L 2.5 0.03125 C 2.300781 0.03125 2.164062 -0.0078125 2.09375 -0.09375 C 2.019531 -0.1875 1.976562 -0.265625 1.96875 -0.328125 C 1.914062 -0.472656 1.929688 -0.664062 2.015625 -0.90625 L 8.703125 -17.515625 C 9.023438 -18.367188 9.375 -18.953125 9.75 -19.265625 C 9.800781 -19.296875 9.859375 -19.335938 9.921875 -19.390625 C 9.984375 -19.441406 10.046875 -19.484375 10.109375 -19.515625 C 10.585938 -19.847656 11.140625 -20.015625 11.765625 -20.015625 C 12.421875 -20.015625 13.007812 -19.8125 13.53125 -19.40625 C 14.0625 -19.007812 14.425781 -18.5 14.625 -17.875 C 14.65625 -17.832031 14.679688 -17.773438 14.703125 -17.703125 C 14.722656 -17.640625 14.742188 -17.578125 14.765625 -17.515625 Z M 14.765625 -17.515625 "/></g></g><g style="fill:#ffffff;fill-opacity:1;"><g transform="translate(135.500926, 213.679616)"><path style="stroke:none" d="M 21.9375 -19.75 C 22.726562 -19.75 23.269531 -19.492188 23.5625 -18.984375 C 23.8125 -18.535156 23.9375 -17.757812 23.9375 -16.65625 L 23.9375 -0.8125 C 23.9375 -0.445312 23.847656 -0.210938 23.671875 -0.109375 C 23.503906 -0.015625 23.363281 0.03125 23.25 0.03125 L 21.1875 0.03125 C 21.09375 0.03125 20.957031 -0.015625 20.78125 -0.109375 C 20.601562 -0.210938 20.515625 -0.445312 20.515625 -0.8125 L 20.515625 -15.21875 C 20.515625 -15.238281 20.515625 -15.25 20.515625 -15.25 C 20.515625 -15.257812 20.515625 -15.265625 20.515625 -15.265625 L 20.390625 -15.265625 C 20.359375 -15.265625 20.34375 -15.25 20.34375 -15.21875 L 16.234375 -5.0625 C 16.066406 -4.5625 15.894531 -4.128906 15.71875 -3.765625 C 15.644531 -3.585938 15.554688 -3.425781 15.453125 -3.28125 C 15.347656 -3.132812 15.242188 -3 15.140625 -2.875 C 14.898438 -2.625 14.644531 -2.445312 14.375 -2.34375 C 14.125 -2.25 13.804688 -2.203125 13.421875 -2.203125 L 12.4375 -2.203125 C 12.082031 -2.203125 11.765625 -2.25 11.484375 -2.34375 C 11.335938 -2.394531 11.203125 -2.46875 11.078125 -2.5625 C 10.960938 -2.65625 10.84375 -2.757812 10.71875 -2.875 C 10.507812 -3.132812 10.316406 -3.429688 10.140625 -3.765625 C 9.984375 -4.128906 9.816406 -4.5625 9.640625 -5.0625 L 5.53125 -15.203125 C 5.519531 -15.242188 5.5 -15.265625 5.46875 -15.265625 L 5.34375 -15.265625 C 5.34375 -15.265625 5.34375 -15.257812 5.34375 -15.25 C 5.34375 -15.25 5.34375 -15.238281 5.34375 -15.21875 L 5.34375 -0.8125 C 5.34375 -0.445312 5.257812 -0.210938 5.09375 -0.109375 C 4.925781 -0.015625 4.785156 0.03125 4.671875 0.03125 L 2.609375 0.03125 C 2.492188 0.03125 2.347656 -0.015625 2.171875 -0.109375 C 2.003906 -0.210938 1.921875 -0.445312 1.921875 -0.8125 L 1.921875 -16.65625 C 1.921875 -17.757812 2.046875 -18.535156 2.296875 -18.984375 C 2.585938 -19.492188 3.140625 -19.75 3.953125 -19.75 L 6.15625 -19.75 C 6.507812 -19.75 6.789062 -19.71875 7 -19.65625 C 7.269531 -19.570312 7.492188 -19.453125 7.671875 -19.296875 C 7.753906 -19.203125 7.835938 -19.097656 7.921875 -18.984375 C 8.003906 -18.867188 8.082031 -18.738281 8.15625 -18.59375 C 8.21875 -18.457031 8.285156 -18.296875 8.359375 -18.109375 C 8.429688 -17.921875 8.5 -17.71875 8.5625 -17.5 L 12.78125 -6.90625 C 12.789062 -6.851562 12.800781 -6.820312 12.8125 -6.8125 C 12.832031 -6.8125 12.84375 -6.8125 12.84375 -6.8125 L 13.09375 -6.8125 C 13.125 -6.8125 13.144531 -6.84375 13.15625 -6.90625 L 17.40625 -17.5 C 17.476562 -17.71875 17.546875 -17.921875 17.609375 -18.109375 C 17.679688 -18.296875 17.75 -18.457031 17.8125 -18.59375 C 17.882812 -18.738281 17.960938 -18.867188 18.046875 -18.984375 C 18.128906 -19.097656 18.207031 -19.203125 18.28125 -19.296875 C 18.476562 -19.472656 18.695312 -19.59375 18.9375 -19.65625 C 19.144531 -19.71875 19.425781 -19.75 19.78125 -19.75 Z M 21.9375 -19.75 "/></g></g><g style="fill:#ffffff;fill-opacity:1;"><g transform="translate(161.345735, 213.679616)"><path style="stroke:none" d=""/></g></g><g style="fill:#ffffff;fill-opacity:1;"><g transform="translate(173.656979, 213.679616)"><path style="stroke:none" d="M 13.5 -11.796875 C 14.738281 -11.796875 15.6875 -11.351562 16.34375 -10.46875 C 16.96875 -9.613281 17.28125 -8.398438 17.28125 -6.828125 L 17.28125 -4.71875 C 17.28125 -3.34375 16.976562 -2.21875 16.375 -1.34375 C 15.75 -0.445312 14.773438 0 13.453125 0 L 2.640625 0 C 2.523438 0 2.378906 -0.0390625 2.203125 -0.125 C 2.023438 -0.21875 1.9375 -0.445312 1.9375 -0.8125 L 1.9375 -2.734375 C 1.9375 -3.097656 2.023438 -3.320312 2.203125 -3.40625 C 2.378906 -3.5 2.523438 -3.546875 2.640625 -3.546875 L 12.875 -3.546875 C 13.082031 -3.546875 13.226562 -3.582031 13.3125 -3.65625 C 13.40625 -3.726562 13.472656 -3.796875 13.515625 -3.859375 C 13.660156 -4.097656 13.734375 -4.429688 13.734375 -4.859375 L 13.734375 -6.921875 C 13.734375 -7.515625 13.632812 -7.882812 13.4375 -8.03125 C 13.25 -8.175781 13.066406 -8.25 12.890625 -8.25 L 5.703125 -8.25 C 5.210938 -8.25 4.707031 -8.3125 4.1875 -8.4375 C 3.664062 -8.5625 3.222656 -8.875 2.859375 -9.375 C 2.234375 -10.25 1.921875 -11.523438 1.921875 -13.203125 L 1.921875 -15.03125 C 1.921875 -16.4375 2.234375 -17.570312 2.859375 -18.4375 C 3.472656 -19.3125 4.4375 -19.75 5.75 -19.75 L 16.078125 -19.75 C 16.179688 -19.75 16.316406 -19.703125 16.484375 -19.609375 C 16.660156 -19.523438 16.75 -19.300781 16.75 -18.9375 L 16.75 -17.015625 C 16.75 -16.648438 16.660156 -16.421875 16.484375 -16.328125 C 16.316406 -16.242188 16.179688 -16.203125 16.078125 -16.203125 L 6.328125 -16.203125 C 6.117188 -16.203125 5.96875 -16.171875 5.875 -16.109375 C 5.789062 -16.046875 5.726562 -15.972656 5.6875 -15.890625 C 5.550781 -15.628906 5.484375 -15.296875 5.484375 -14.890625 L 5.484375 -13.109375 C 5.484375 -12.515625 5.578125 -12.144531 5.765625 -12 C 5.953125 -11.863281 6.128906 -11.796875 6.296875 -11.796875 Z M 13.5 -11.796875 "/></g></g><g style="fill:#ffffff;fill-opacity:1;"><g transform="translate(192.842791, 213.679616)"><path style="stroke:none" d="M 16.328125 -4.296875 C 16.429688 -4.296875 16.570312 -4.25 16.75 -4.15625 C 16.925781 -4.070312 17.015625 -3.84375 17.015625 -3.46875 L 17.015625 -0.84375 C 17.015625 -0.46875 16.925781 -0.238281 16.75 -0.15625 C 16.570312 -0.0703125 16.429688 -0.03125 16.328125 -0.03125 L 7.8125 -0.03125 C 7.28125 -0.03125 6.789062 -0.0625 6.34375 -0.125 C 5.90625 -0.1875 5.5 -0.289062 5.125 -0.4375 C 4.34375 -0.707031 3.722656 -1.144531 3.265625 -1.75 C 2.785156 -2.375 2.441406 -3.15625 2.234375 -4.09375 C 2.148438 -4.5 2.078125 -4.941406 2.015625 -5.421875 C 1.960938 -5.898438 1.929688 -6.414062 1.921875 -6.96875 L 1.921875 -7.09375 L 1.96875 -10.109375 C 2.007812 -10.285156 2.097656 -10.488281 2.234375 -10.71875 C 2.578125 -11.34375 3.117188 -11.675781 3.859375 -11.71875 L 16.234375 -11.75 C 16.328125 -11.75 16.457031 -11.703125 16.625 -11.609375 C 16.800781 -11.523438 16.890625 -11.300781 16.890625 -10.9375 L 16.890625 -9.03125 C 16.890625 -8.664062 16.800781 -8.4375 16.625 -8.34375 C 16.457031 -8.25 16.328125 -8.203125 16.234375 -8.203125 L 5.515625 -8.203125 C 5.515625 -8.203125 5.507812 -8.113281 5.5 -7.9375 C 5.488281 -7.757812 5.476562 -7.554688 5.46875 -7.328125 C 5.46875 -7.109375 5.46875 -6.910156 5.46875 -6.734375 C 5.46875 -6.554688 5.46875 -6.46875 5.46875 -6.46875 C 5.476562 -6.40625 5.484375 -6.335938 5.484375 -6.265625 C 5.484375 -6.191406 5.492188 -6.125 5.515625 -6.0625 C 5.578125 -5.613281 5.710938 -5.253906 5.921875 -4.984375 C 6.109375 -4.742188 6.347656 -4.566406 6.640625 -4.453125 C 6.816406 -4.410156 7.003906 -4.375 7.203125 -4.34375 C 7.398438 -4.3125 7.628906 -4.296875 7.890625 -4.296875 Z M 4.03125 -11.53125 Z M 16.34375 -19.796875 C 16.4375 -19.796875 16.570312 -19.75 16.75 -19.65625 C 16.925781 -19.5625 17.015625 -19.328125 17.015625 -18.953125 L 17.015625 -17.0625 C 17.015625 -16.695312 16.925781 -16.46875 16.75 -16.375 C 16.570312 -16.28125 16.4375 -16.234375 16.34375 -16.234375 L 2.5625 -16.25 C 2.46875 -16.25 2.335938 -16.289062 2.171875 -16.375 C 2.003906 -16.46875 1.921875 -16.695312 1.921875 -17.0625 L 1.921875 -18.9375 C 1.921875 -19.320312 2.003906 -19.5625 2.171875 -19.65625 C 2.335938 -19.75 2.46875 -19.796875 2.5625 -19.796875 Z M 16.34375 -19.796875 "/></g></g><g style="fill:#ffffff;fill-opacity:1;"><g transform="translate(211.765126, 213.679616)"><path style="stroke:none" d="M 18.265625 -14.015625 L 18.265625 -13.875 C 18.265625 -13.894531 18.265625 -13.90625 18.265625 -13.90625 C 18.265625 -13.914062 18.265625 -13.929688 18.265625 -13.953125 C 18.265625 -13.960938 18.265625 -13.972656 18.265625 -13.984375 C 18.265625 -13.992188 18.265625 -14.003906 18.265625 -14.015625 Z M 18.71875 -1.03125 C 18.8125 -0.90625 18.84375 -0.710938 18.8125 -0.453125 C 18.769531 -0.128906 18.585938 0.03125 18.265625 0.03125 L 15.625 0.03125 C 15.414062 0.03125 15.25 -0.0195312 15.125 -0.125 C 15.070312 -0.15625 15.023438 -0.203125 14.984375 -0.265625 C 14.953125 -0.328125 14.910156 -0.390625 14.859375 -0.453125 L 10.515625 -8.15625 L 5.46875 -8.15625 L 5.46875 -0.8125 C 5.46875 -0.445312 5.382812 -0.210938 5.21875 -0.109375 C 5.050781 -0.015625 4.910156 0.03125 4.796875 0.03125 L 2.609375 0.03125 C 2.492188 0.03125 2.347656 -0.015625 2.171875 -0.109375 C 2.003906 -0.210938 1.921875 -0.445312 1.921875 -0.8125 L 1.921875 -10.875 C 1.921875 -11.25 2.003906 -11.476562 2.171875 -11.5625 C 2.347656 -11.65625 2.492188 -11.703125 2.609375 -11.703125 L 13.03125 -11.703125 C 13.644531 -11.703125 14.070312 -11.875 14.3125 -12.21875 C 14.5625 -12.570312 14.6875 -13.148438 14.6875 -13.953125 C 14.6875 -14.742188 14.5625 -15.316406 14.3125 -15.671875 C 14.070312 -16.023438 13.644531 -16.203125 13.03125 -16.203125 L 2.609375 -16.203125 C 2.492188 -16.203125 2.347656 -16.242188 2.171875 -16.328125 C 2.003906 -16.421875 1.921875 -16.648438 1.921875 -17.015625 L 1.921875 -18.90625 C 1.921875 -19.289062 2.003906 -19.523438 2.171875 -19.609375 C 2.347656 -19.703125 2.492188 -19.75 2.609375 -19.75 L 13.65625 -19.75 C 15.300781 -19.75 16.484375 -19.238281 17.203125 -18.21875 C 17.890625 -17.226562 18.242188 -15.804688 18.265625 -13.953125 C 18.242188 -12.097656 17.890625 -10.675781 17.203125 -9.6875 C 16.597656 -8.851562 15.707031 -8.363281 14.53125 -8.21875 Z M 18.71875 -1.03125 "/></g></g><g style="fill:#ffffff;fill-opacity:1;"><g transform="translate(232.507896, 213.679616)"><path style="stroke:none" d="M 21.015625 -20.015625 C 21.191406 -20.015625 21.320312 -19.972656 21.40625 -19.890625 C 21.488281 -19.816406 21.535156 -19.742188 21.546875 -19.671875 C 21.597656 -19.515625 21.570312 -19.316406 21.46875 -19.078125 L 14.8125 -2.5 C 14.445312 -1.613281 14.097656 -1.03125 13.765625 -0.75 C 13.679688 -0.664062 13.5625 -0.582031 13.40625 -0.5 C 12.90625 -0.144531 12.351562 0.03125 11.75 0.03125 C 11.09375 0.03125 10.492188 -0.164062 9.953125 -0.5625 C 9.421875 -0.96875 9.066406 -1.492188 8.890625 -2.140625 C 8.878906 -2.179688 8.851562 -2.234375 8.8125 -2.296875 C 8.78125 -2.359375 8.75 -2.425781 8.71875 -2.5 L 2.015625 -19.078125 C 1.921875 -19.316406 1.894531 -19.515625 1.9375 -19.671875 C 1.957031 -19.722656 2.003906 -19.789062 2.078125 -19.875 C 2.148438 -19.96875 2.269531 -20.015625 2.4375 -20.015625 L 5.03125 -20.015625 C 5.382812 -20.015625 5.609375 -19.847656 5.703125 -19.515625 L 11.671875 -4.671875 C 11.691406 -4.660156 11.703125 -4.644531 11.703125 -4.625 C 11.703125 -4.613281 11.703125 -4.609375 11.703125 -4.609375 L 11.796875 -4.625 C 11.796875 -4.625 11.796875 -4.628906 11.796875 -4.640625 C 11.804688 -4.648438 11.8125 -4.660156 11.8125 -4.671875 L 17.6875 -19.515625 C 17.832031 -19.847656 18.066406 -20.015625 18.390625 -20.015625 Z M 21.015625 -20.015625 "/></g></g><g style="fill:#ffffff;fill-opacity:1;"><g transform="translate(255.981329, 213.679616)"><path style="stroke:none" d="M 4.796875 -19.75 C 4.890625 -19.75 5.023438 -19.703125 5.203125 -19.609375 C 5.378906 -19.515625 5.46875 -19.28125 5.46875 -18.90625 L 5.46875 -0.8125 C 5.46875 -0.445312 5.378906 -0.210938 5.203125 -0.109375 C 5.023438 -0.015625 4.890625 0.03125 4.796875 0.03125 L 2.59375 0.03125 C 2.488281 0.03125 2.347656 -0.015625 2.171875 -0.109375 C 2.003906 -0.210938 1.921875 -0.445312 1.921875 -0.8125 L 1.921875 -18.90625 C 1.921875 -19.28125 2.003906 -19.515625 2.171875 -19.609375 C 2.347656 -19.703125 2.488281 -19.75 2.59375 -19.75 Z M 4.796875 -19.75 "/></g></g><g style="fill:#ffffff;fill-opacity:1;"><g transform="translate(263.358213, 213.679616)"><path style="stroke:none" d="M 13.5 -11.796875 C 14.738281 -11.796875 15.6875 -11.351562 16.34375 -10.46875 C 16.96875 -9.613281 17.28125 -8.398438 17.28125 -6.828125 L 17.28125 -4.71875 C 17.28125 -3.34375 16.976562 -2.21875 16.375 -1.34375 C 15.75 -0.445312 14.773438 0 13.453125 0 L 2.640625 0 C 2.523438 0 2.378906 -0.0390625 2.203125 -0.125 C 2.023438 -0.21875 1.9375 -0.445312 1.9375 -0.8125 L 1.9375 -2.734375 C 1.9375 -3.097656 2.023438 -3.320312 2.203125 -3.40625 C 2.378906 -3.5 2.523438 -3.546875 2.640625 -3.546875 L 12.875 -3.546875 C 13.082031 -3.546875 13.226562 -3.582031 13.3125 -3.65625 C 13.40625 -3.726562 13.472656 -3.796875 13.515625 -3.859375 C 13.660156 -4.097656 13.734375 -4.429688 13.734375 -4.859375 L 13.734375 -6.921875 C 13.734375 -7.515625 13.632812 -7.882812 13.4375 -8.03125 C 13.25 -8.175781 13.066406 -8.25 12.890625 -8.25 L 5.703125 -8.25 C 5.210938 -8.25 4.707031 -8.3125 4.1875 -8.4375 C 3.664062 -8.5625 3.222656 -8.875 2.859375 -9.375 C 2.234375 -10.25 1.921875 -11.523438 1.921875 -13.203125 L 1.921875 -15.03125 C 1.921875 -16.4375 2.234375 -17.570312 2.859375 -18.4375 C 3.472656 -19.3125 4.4375 -19.75 5.75 -19.75 L 16.078125 -19.75 C 16.179688 -19.75 16.316406 -19.703125 16.484375 -19.609375 C 16.660156 -19.523438 16.75 -19.300781 16.75 -18.9375 L 16.75 -17.015625 C 16.75 -16.648438 16.660156 -16.421875 16.484375 -16.328125 C 16.316406 -16.242188 16.179688 -16.203125 16.078125 -16.203125 L 6.328125 -16.203125 C 6.117188 -16.203125 5.96875 -16.171875 5.875 -16.109375 C 5.789062 -16.046875 5.726562 -15.972656 5.6875 -15.890625 C 5.550781 -15.628906 5.484375 -15.296875 5.484375 -14.890625 L 5.484375 -13.109375 C 5.484375 -12.515625 5.578125 -12.144531 5.765625 -12 C 5.953125 -11.863281 6.128906 -11.796875 6.296875 -11.796875 Z M 13.5 -11.796875 "/></g></g></g></svg>